Coordinates
version=1
nRows=37
nColumns=34
inDegrees=no

Units are S.I. units (second, meters, Newtons, ...)
If the header above contains a line with 'inDegrees', this indicates whether rotational values are in degrees (yes) or radians (no).

endheader
time	pelvis_tilt	pelvis_list	pelvis_rotation	pelvis_tx	pelvis_ty	pelvis_tz	hip_flexion_r	hip_adduction_r	hip_rotation_r	knee_angle_r	ankle_angle_r	subtalar_angle_r	mtp_angle_r	hip_flexion_l	hip_adduction_l	hip_rotation_l	knee_angle_l	ankle_angle_l	subtalar_angle_l	mtp_angle_l	lumbar_extension	lumbar_bending	lumbar_rotation	arm_flex_r	arm_add_r	arm_rot_r	elbow_flex_r	pro_sup_r	arm_flex_l	arm_add_l	arm_rot_l	elbow_flex_l	pro_sup_l
9.6	-0.43652	-0.128458	-0.0403781	-0.261891	0.739179	-0.575373	1.28997	-0.18915	-0.176805	1.33989	0.512094	-0.0521482	-0.0952488	1.42635	-0.338079	0.112452	1.4142	0.540195	0.0604318	-0.0952489	-0.287434	0.153193	0.0135036	0.747294	-0.592989	0.0790552	2.27206	1.39271	0.582268	-0.4369	0.0903802	2.36732	1.40889
9.61	-0.431674	-0.128201	-0.0396966	-0.259173	0.746162	-0.575263	1.26721	-0.185747	-0.180302	1.31719	0.506638	-0.0531687	-0.0952488	1.40248	-0.339944	0.10522	1.39249	0.536249	0.0609685	-0.0952489	-0.279029	0.153021	0.011523	0.71734	-0.593518	0.0851809	2.27048	1.39359	0.550688	-0.430265	0.0918774	2.36533	1.4109
9.62	-0.425954	-0.127145	-0.0393106	-0.25631	0.753421	-0.575114	1.24316	-0.182446	-0.183226	1.2935	0.500926	-0.0535613	-0.0952488	1.37645	-0.342103	0.0963728	1.36964	0.532096	0.0617616	-0.0952489	-0.271194	0.151662	0.0100423	0.686243	-0.593414	0.0916327	2.2682	1.39505	0.51914	-0.423186	0.0942765	2.36138	1.41267
9.63	-0.41936	-0.125332	-0.0394014	-0.253297	0.760947	-0.574903	1.21779	-0.179014	-0.185527	1.26875	0.494861	-0.0534573	-0.0952488	1.34823	-0.344718	0.0858824	1.34561	0.527719	0.0629291	-0.0952489	-0.263931	0.149098	0.00923724	0.654053	-0.592488	0.0982833	2.26508	1.39719	0.487727	-0.415823	0.097548	2.3554	1.41373
9.64	-0.411919	-0.122832	-0.0400517	-0.250135	0.768729	-0.574619	1.19111	-0.175313	-0.187196	1.24289	0.488354	-0.052982	-0.0952488	1.31787	-0.347814	0.0738056	1.32039	0.523077	0.0645334	-0.095249	-0.257206	0.145393	0.00918378	0.620882	-0.590598	0.105009	2.26098	1.40022	0.456579	-0.408245	0.101586	2.34727	1.41385
9.65	-0.403679	-0.119737	-0.0412128	-0.246828	0.776749	-0.574266	1.16311	-0.171351	-0.188283	1.21587	0.481341	-0.0522232	-0.0952488	1.28546	-0.351232	0.0602891	1.29393	0.518096	0.0665544	-0.095249	-0.250963	0.140694	0.00982309	0.586912	-0.58766	0.111698	2.2558	1.40435	0.425833	-0.400424	0.106202	2.33691	1.41313
9.66	-0.394698	-0.116146	-0.0427107	-0.243383	0.784983	-0.573865	1.13381	-0.167278	-0.188892	1.1877	0.473784	-0.0512181	-0.0952488	1.25116	-0.354641	0.0455611	1.2662	0.512673	0.0688816	-0.095249	-0.245131	0.135211	0.0109671	0.552378	-0.583658	0.118238	2.24944	1.40975	0.395615	-0.39228	0.111162	2.3242	1.41196
9.67	-0.385054	-0.112154	-0.0442966	-0.23981	0.793407	-0.573448	1.10325	-0.163335	-0.189154	1.15836	0.465666	-0.0499717	-0.0952489	1.21515	-0.35761	0.029909	1.23717	0.506686	0.0713361	-0.095249	-0.239626	0.129184	0.0123522	0.517534	-0.57862	0.124492	2.24189	1.41646	0.366022	-0.383747	0.116242	2.30905	1.41092
9.68	-0.374842	-0.107852	-0.0457224	-0.23612	0.801986	-0.573048	1.0715	-0.159752	-0.189201	1.12788	0.456971	-0.0484963	-0.0952489	1.17762	-0.359719	0.0136475	1.20681	0.500021	0.0737167	-0.095249	-0.23436	0.12284	0.0137176	0.482624	-0.572585	0.130254	2.23316	1.42436	0.337121	-0.374818	0.121266	2.29143	1.41058
9.69	-0.364187	-0.10333	-0.0468039	-0.232326	0.810686	-0.57269	1.03866	-0.156668	-0.189136	1.09628	0.447673	-0.0468477	-0.0952489	1.13885	-0.360655	-0.00290981	1.17513	0.49258	0.075853	-0.095249	-0.229231	0.116377	0.0148701	0.447852	-0.565574	0.135239	2.22332	1.43308	0.30896	-0.365549	0.126112	2.27136	1.41145
9.7	-0.353245	-0.0986849	-0.0474444	-0.228444	0.819463	-0.572386	1.0049	-0.154103	-0.189035	1.06357	0.43773	-0.0451349	-0.0952489	1.09912	-0.360264	-0.0194713	1.14214	0.484303	0.0776457	-0.095249	-0.224125	0.109957	0.0157089	0.413378	-0.557596	0.139087	2.2125	1.44219	0.281572	-0.356054	0.130712	2.24895	1.41375
9.71	-0.342185	-0.0940158	-0.047625	-0.224488	0.828273	-0.572139	0.970427	-0.151973	-0.188943	1.02979	0.427096	-0.0434986	-0.0952489	1.05878	-0.358536	-0.0357871	1.1079	0.475169	0.0790803	-0.095249	-0.218933	0.103707	0.0162144	0.379322	-0.548651	0.141415	2.20086	1.45126	0.25498	-0.346484	0.135039	2.22442	1.4174
9.72	-0.331157	-0.0894097	-0.0473792	-0.220475	0.837067	-0.571944	0.935423	-0.150151	-0.188891	0.994969	0.415745	-0.0420653	-0.0952489	1.01812	-0.355564	-0.051664	1.0725	0.465203	0.0802172	-0.095249	-0.213576	0.0977161	0.0164154	0.345791	-0.53876	0.141878	2.18861	1.45995	0.229202	-0.337005	0.139093	2.19806	1.42203
9.73	-0.320264	-0.0849282	-0.0467693	-0.216422	0.845801	-0.571793	0.900045	-0.148507	-0.18891	0.95917	0.403683	-0.0408978	-0.0952489	0.97739	-0.351498	-0.0669798	1.03605	0.454467	0.0811741	-0.095249	-0.208032	0.092028	0.0163571	0.312899	-0.527971	0.140244	2.17595	1.46797	0.204252	-0.32778	0.142884	2.17024	1.42713
9.74	-0.309552	-0.0805992	-0.0458709	-0.212343	0.854431	-0.571677	0.864402	-0.146953	-0.189038	0.922477	0.390972	-0.0399557	-0.0952489	0.936734	-0.346507	-0.0816954	0.99865	0.44306	0.0821159	-0.095249	-0.202339	0.0866414	0.0160794	0.280778	-0.516372	0.136445	2.16306	1.47516	0.180128	-0.318958	0.146411	2.14133	1.43226
9.75	-0.299011	-0.0764187	-0.0447634	-0.208249	0.862916	-0.571587	0.828556	-0.145455	-0.189343	0.885009	0.37773	-0.0390772	-0.0952489	0.896227	-0.340765	-0.0958569	0.960433	0.431112	0.0832528	-0.095249	-0.196577	0.0815186	0.0156067	0.249575	-0.504085	0.13059	2.15013	1.48144	0.156816	-0.31067	0.149661	2.1117	1.43719
9.76	-0.288588	-0.0723577	-0.0435225	-0.20415	0.871218	-0.571516	0.792535	-0.144039	-0.189921	0.846924	0.364125	-0.0379812	-0.0952489	0.855873	-0.334431	-0.109586	0.921537	0.418771	0.0848352	-0.0952491	-0.19086	0.0765995	0.014948	0.219438	-0.491268	0.122956	2.1373	1.48679	0.134287	-0.303022	0.152621	2.08172	1.44178
9.77	-0.278199	-0.068374	-0.0422177	-0.200051	0.8793	-0.571457	0.756352	-0.142781	-0.190906	0.808419	0.350366	-0.0362937	-0.0952489	0.815635	-0.327646	-0.123057	0.882119	0.406199	0.0871406	-0.0952491	-0.185316	0.0718172	0.0141033	0.190496	-0.478108	0.113946	2.12473	1.49108	0.112504	-0.296099	0.155291	2.05174	1.44591
9.78	-0.267737	-0.0644216	-0.0409138	-0.195959	0.887129	-0.571408	0.72001	-0.141781	-0.192444	0.769722	0.336677	-0.0335934	-0.095249	0.77545	-0.320533	-0.136482	0.842355	0.393563	0.0904584	-0.0952491	-0.180087	0.0671081	0.013079	0.162852	-0.464813	0.104031	2.11255	1.49415	0.0914429	-0.289968	0.157699	2.02211	1.44943
9.79	-0.257083	-0.0604623	-0.0396733	-0.191877	0.894674	-0.571364	0.683511	-0.141136	-0.194684	0.73108	0.323287	-0.0294674	-0.095249	0.735251	-0.313208	-0.150088	0.802445	0.381031	0.0950784	-0.0952491	-0.175322	0.0624217	0.0119001	0.136575	-0.451601	0.0936921	2.10093	1.49579	0.0710968	-0.284685	0.15991	1.99315	1.45215
9.8	-0.246123	-0.0564765	-0.0385531	-0.187812	0.901909	-0.571321	0.646867	-0.140912	-0.197751	0.692747	0.310405	-0.0235671	-0.095249	0.694991	-0.305785	-0.164091	0.762613	0.368768	0.101281	-0.0952491	-0.171159	0.0577285	0.010614	0.111692	-0.438687	0.0833734	2.09	1.49585	0.0514856	-0.280301	0.162019	1.96518	1.45387
9.81	-0.234765	-0.0524716	-0.0375947	-0.183772	0.908808	-0.571275	0.610114	-0.141128	-0.201745	0.65497	0.298217	-0.0156561	-0.095249	0.654674	-0.298381	-0.178669	0.72311	0.356942	0.109323	-0.0952491	-0.167715	0.0530268	0.00927871	0.088194	-0.426275	0.0734639	2.07988	1.4943	0.0326436	-0.27686	0.164129	1.93851	1.45448
9.82	-0.222964	-0.048484	-0.036814	-0.179768	0.915347	-0.571219	0.573323	-0.141749	-0.20673	0.61798	0.286876	-0.00564128	-0.095249	0.614379	-0.291115	-0.193927	0.684208	0.34571	0.119416	-0.0952491	-0.165056	0.0483449	0.00794389	0.0660471	-0.414552	0.0642918	2.07063	1.4913	0.0146047	-0.274394	0.166328	1.91342	1.45397
9.83	-0.210722	-0.0445723	-0.0361974	-0.175813	0.921505	-0.57115	0.536608	-0.142696	-0.212736	0.58198	0.276501	0.00642276	-0.095249	0.574265	-0.284089	-0.209879	0.646191	0.335217	0.131686	-0.0952491	-0.163202	0.0437344	0.0066362	0.0452064	-0.403688	0.0561252	2.06227	1.4872	-0.00260931	-0.272917	0.168668	1.89018	1.45235
9.84	-0.198092	-0.0408057	-0.0357059	-0.171924	0.927261	-0.571064	0.500121	-0.143861	-0.219757	0.547149	0.267172	0.0203582	-0.095249	0.534562	-0.277385	-0.226443	0.609334	0.325579	0.146146	-0.0952491	-0.162126	0.0392595	0.00535367	0.0256323	-0.393835	0.049172	2.05479	1.48252	-0.0189935	-0.272425	0.171151	1.86901	1.44974
9.85	-0.185169	-0.0372533	-0.0352847	-0.16812	0.9326	-0.570962	0.464048	-0.145126	-0.227752	0.513633	0.258936	0.035907	-0.095249	0.495538	-0.271054	-0.243454	0.573887	0.31688	0.162674	-0.0952491	-0.161774	0.0349865	0.0040696	0.00729747	-0.38512	0.0435819	2.04812	1.47785	-0.03456	-0.272878	0.173721	1.85011	1.44641
9.86	-0.172069	-0.0339772	-0.0348744	-0.164423	0.93751	-0.570844	0.428592	-0.146374	-0.236658	0.481557	0.251811	0.0527837	-0.095249	0.457477	-0.265123	-0.2607	0.540061	0.309173	0.181038	-0.0952491	-0.162069	0.0309785	0.00274321	-0.00981251	-0.37764	0.0394502	2.04218	1.4738	-0.0493338	-0.274202	0.176266	1.83357	1.44278
9.87	-0.158917	-0.0310262	-0.0344218	-0.160851	0.941986	-0.570713	0.393959	-0.147513	-0.246403	0.451026	0.245796	0.070728	-0.095249	0.420642	-0.2596	-0.277966	0.508021	0.302486	0.200947	-0.0952492	-0.162938	0.0272908	0.00133499	-0.0257052	-0.371461	0.0368212	2.0369	1.47079	-0.063343	-0.276282	0.178643	1.81941	1.43944
9.88	-0.14582	-0.0284293	-0.0338925	-0.157422	0.946028	-0.570576	0.36033	-0.148487	-0.256918	0.422133	0.240882	0.0895459	-0.095249	0.38523	-0.254487	-0.295092	0.477881	0.296834	0.222119	-0.0952492	-0.164326	0.0239611	-0.000173634	-0.0403906	-0.366612	0.035689	2.03221	1.46908	-0.0766079	-0.278975	0.180707	1.8076	1.43691
9.89	-0.132842	-0.0261931	-0.0332867	-0.15415	0.949647	-0.570436	0.327835	-0.149275	-0.268124	0.394955	0.237058	0.109105	-0.0952491	0.351343	-0.249778	-0.312008	0.4497	0.292222	0.244323	-0.0952492	-0.166214	0.0210026	-0.00175784	-0.053891	-0.363084	0.0359968	2.02804	1.4687	-0.0891314	-0.28212	0.182332	1.79803	1.43561
9.9	-0.120006	-0.0243081	-0.0326548	-0.151044	0.952861	-0.570293	0.296556	-0.149867	-0.279893	0.36954	0.234292	0.129292	-0.0952491	0.318977	-0.245479	-0.328757	0.423482	0.288642	0.267395	-0.0952492	-0.168613	0.0184042	-0.00332949	-0.066249	-0.360824	0.037641	2.02432	1.46954	-0.100899	-0.285556	0.18343	1.79057	1.43575
9.91	-0.107302	-0.0227598	-0.0321035	-0.148106	0.955695	-0.570142	0.266524	-0.150245	-0.292019	0.345904	0.232527	0.149964	-0.0952491	0.288039	-0.241616	-0.34548	0.399186	0.28607	0.291231	-0.0952492	-0.171557	0.0161372	-0.00473121	-0.0775309	-0.359737	0.0404802	2.021	1.47143	-0.111883	-0.289135	0.183955	1.78503	1.43727
9.92	-0.0946885	-0.0215363	-0.0317781	-0.145337	0.958179	-0.569973	0.237734	-0.150377	-0.304228	0.324038	0.231673	0.170932	-0.0952491	0.258367	-0.238234	-0.362377	0.37674	0.284465	0.315763	-0.0952492	-0.175094	0.0141646	-0.00575917	-0.0878243	-0.359696	0.0443474	2.01799	1.47413	-0.122056	-0.292733	0.183905	1.7812	1.43995
9.93	-0.0821191	-0.0206309	-0.0318257	-0.142732	0.960348	-0.569773	0.210155	-0.150221	-0.316199	0.30391	0.231613	0.191944	-0.0952491	0.229784	-0.235376	-0.379623	0.356049	0.283756	0.340886	-0.0952492	-0.179261	0.0124499	-0.00620936	-0.0972318	-0.360546	0.0490601	2.01519	1.47738	-0.131398	-0.296247	0.183319	1.77883	1.44333
9.94	-0.0695591	-0.0200434	-0.0323601	-0.140285	0.962236	-0.569532	0.183753	-0.14974	-0.32761	0.285472	0.232207	0.212696	-0.0952491	0.202138	-0.233073	-0.397298	0.337021	0.283841	0.366415	-0.0952492	-0.184071	0.0109658	-0.00592189	-0.105864	-0.362113	0.0544305	2.01249	1.48089	-0.139912	-0.299591	0.182263	1.77771	1.44679
9.95	-0.0570122	-0.0197813	-0.033442	-0.137988	0.963876	-0.569241	0.158514	-0.148904	-0.338171	0.26867	0.233303	0.232857	-0.0952491	0.175353	-0.231341	-0.415366	0.31959	0.28459	0.392078	-0.0952492	-0.189483	0.00970251	-0.00480584	-0.113841	-0.364215	0.060276	2.0098	1.48439	-0.147629	-0.302685	0.180789	1.77761	1.44971
9.96	-0.0445312	-0.0198609	-0.0350711	-0.135832	0.965298	-0.568898	0.134453	-0.14769	-0.347665	0.253441	0.234756	0.252119	-0.0952491	0.149451	-0.230201	-0.433694	0.30373	0.285874	0.417569	-0.0952492	-0.195387	0.00867406	-0.00284707	-0.121287	-0.366674	0.0664277	2.00704	1.48767	-0.154625	-0.305457	0.178895	1.7783	1.45174
